<svg xmlns="http://www.w3.org/2000/svg" fill="none" viewBox="0 0 48 48"><path fill="url(#a)" d="M6 10.5A4.5 4.5 0 0 1 10.5 6H33a9 9 0 0 1 9 9v22.5a4.5 4.5 0 0 1-4.5 4.5H15a9 9 0 0 1-9-9V10.5z"/><path fill="url(#b)" d="M7 10.5A3.5 3.5 0 0 1 10.5 7H33a8 8 0 0 1 8 8v22.5a3.5 3.5 0 0 1-3.5 3.5H15a8 8 0 0 1-8-8V10.5z"/><path fill="url(#c)" d="M7 10.5A3.5 3.5 0 0 1 10.5 7H33a8 8 0 0 1 8 8v22.5a3.5 3.5 0 0 1-3.5 3.5H15a8 8 0 0 1-8-8V10.5z"/><path fill="url(#d)" d="M20.147 16.26c-1.333-.75-2.98.213-2.98 1.742v11.996c0 1.529 1.647 2.492 2.98 1.742l10.667-5.997c1.359-.765 1.359-2.72 0-3.485L20.147 16.26z"/><defs><linearGradient id="a" x1="17.625" x2="22.472" y1="6" y2="42.354" gradientUnits="userSpaceOnUse"><stop stop-color="#BBB"/><stop offset="1" stop-color="#888"/></linearGradient><linearGradient id="b" x1="16.444" x2="20.745" y1="7" y2="41.407" gradientUnits="userSpaceOnUse"><stop stop-color="#fff"/><stop offset="1" stop-color="#EBEBEB"/></linearGradient><radialGradient id="c" cx="0" cy="0" r="1" gradientTransform="matrix(17.9444 26.9167 -26.9167 10.0937 17.861 15.854)" gradientUnits="userSpaceOnUse"><stop offset=".177" stop-color="#fff"/><stop offset="1" stop-color="#EFEFEF"/></radialGradient><linearGradient id="d" x1="24.5" x2="22.597" y1="28.084" y2="19.045" gradientUnits="userSpaceOnUse"><stop stop-color="#892FFF"/><stop offset="1" stop-color="#A966FF"/></linearGradient></defs></svg>